# xmcd
#
# Track frame offsets:
#	150
#	10437
#	20735
#	29875
#	37762
#	47075
#	57795
#	65437
#	73940
#	84390
#	95145
#	105920
#
# Disc length: 1526 seconds
#
# Revision: 0
# Processed by: cddbd v1.4PL0 Copyright (c) Steve Scherf et al.
# Submitted via: dBpowerAMP V4.0
#
DISCID=a005f40c
DTITLE=Fats Domino - 36 All-Time Greatest Hits Volume 3
DYEAR=1999
DGENRE=Blues
TTITLE0=Be My Guest
TTITLE1=Country Boy
TTITLE2=Walking To New Orleans
TTITLE3=Three Nights A Week
TTITLE4=My Girl Josephine
TTITLE5=What A Price
TTITLE6=Shu Rah
TTITLE7=What A Party
TTITLE8=Let The Four Winds Blow
TTITLE9=You Win Again
TTITLE10=Jambalaya (On The Bayou)
TTITLE11=I Hear You Knockin'
EXTD=
EXTT0=
EXTT1=
EXTT2=
EXTT3=
EXTT4=
EXTT5=
EXTT6=
EXTT7=
EXTT8=
EXTT9=
EXTT10=
EXTT11=
PLAYORDER=
